<svg width="1980" height="1024" viewBox="0 0 1980 1024" fill="none" xmlns="http://www.w3.org/2000/svg">
<g clip-path="url(#clip0_0_214)">
<path fill-rule="evenodd" clip-rule="evenodd" d="M922.752 1318.18C889.09 1318.29 856.383 1319.44 822.627 1319.55C685.41 1320.01 546.931 1319.35 409.217 1313.78C370.294 1312.21 360.578 1312.25 321.823 1309.81C298.94 1309.72 230.205 1307.83 233.646 1276.65C235.165 1218.59 249.537 1160.76 254.064 1102.85C262.752 993.986 270.15 881.714 313.776 779.889C323.874 755.572 345.561 739.67 367.03 725.37C388.559 709.944 393.843 692.816 413.714 675.39C417.915 671.704 441.774 670.205 454.612 660.858C473.296 647.253 482.562 624.98 489.533 621.188C494.663 618.399 494.569 599.151 504.851 592.339C518.648 583.197 562.614 576.399 578.61 575.128C593.963 573.908 620.667 576.471 635.072 582.094C659.094 591.473 668.675 609.362 679.254 632.41C819.021 675.62 946.77 748.791 986.445 896.38C1020.66 1020.16 1021.91 1152.87 1008.69 1279.82C1006.05 1289.1 1007.9 1303.65 999.884 1309.81C1027.75 1311.41 926.533 1317.16 922.752 1318.18Z" fill="white"/>
<path fill-rule="evenodd" clip-rule="evenodd" d="M287.041 1195.96C289.686 1194.64 292.443 1193.13 295.464 1193.02C300.651 1192.84 300.658 1184.77 295.464 1184.95C290.933 1185.11 286.954 1187 282.968 1188.99C278.316 1191.31 282.408 1198.27 287.041 1195.96M295.464 968.722C291.924 968.725 288.356 969.172 285.637 971.649C284.021 973.122 284.149 975.868 285.637 977.357C287.23 978.949 289.734 978.825 291.345 977.357C290.819 977.835 291.34 977.361 291.53 977.255C291.576 977.231 291.601 977.214 291.613 977.203C291.653 977.193 291.694 977.185 291.759 977.168C292.181 977.062 292.598 976.958 293.024 976.881C293.031 976.901 293.925 976.821 294.135 976.813C294.579 976.797 295.021 976.795 295.464 976.795C297.653 976.794 299.499 974.949 299.499 972.759C299.499 970.579 297.645 968.721 295.464 968.722M333.41 1059.28C334.566 1064.35 342.345 1062.19 341.192 1057.13C339.515 1049.78 339.821 1042.24 341.192 1034.86C342.136 1029.78 334.357 1027.62 333.41 1032.72C331.765 1041.57 331.397 1050.45 333.41 1059.28M343.603 769.142C349.613 767.714 355.558 767.544 361.706 767.542C366.907 767.54 366.899 759.467 361.706 759.469C354.849 759.471 348.155 759.766 341.457 761.358C336.399 762.559 338.554 770.341 343.603 769.142M363.742 965.782C367.228 964.038 370.715 962.294 374.201 960.55C378.853 958.224 374.761 951.263 370.128 953.579L359.669 958.811C355.018 961.137 359.11 968.098 363.742 965.782M365.194 1124.76C369.616 1131.14 375.833 1135.1 383.294 1137.08C388.328 1138.41 390.457 1130.62 385.44 1129.29C380.104 1127.88 375.364 1125.3 372.163 1120.69C369.22 1116.44 362.227 1120.48 365.194 1124.76M393.08 840.525C394.277 838.289 396.078 837.344 398.313 837.294C403.506 837.175 403.507 829.102 398.313 829.221C393.219 829.336 388.547 831.895 386.113 836.451C383.662 841.036 390.632 845.109 393.08 840.525M444.269 895.4C445.716 896.976 448.521 896.936 449.976 895.4C450.867 894.459 451.615 893.409 452.204 892.257C452.428 891.82 452.639 891.375 452.885 890.95C452.995 890.762 453.117 890.574 453.242 890.392C453.285 890.355 453.373 890.264 453.463 890.168C455.014 888.528 454.975 886.107 453.463 884.46C452.016 882.883 449.21 882.923 447.755 884.46C446.866 885.4 446.116 886.451 445.528 887.602C445.304 888.039 445.093 888.484 444.846 888.91C444.736 889.099 444.614 889.285 444.489 889.467C444.447 889.504 444.36 889.595 444.269 889.691C442.718 891.331 442.757 893.752 444.269 895.4M448.573 1014.61C453.828 1017.01 459.593 1017.01 464.849 1014.61C466.839 1013.7 467.311 1010.82 466.295 1009.08C465.119 1007.07 462.755 1006.73 460.775 1007.64C458.391 1008.73 455.026 1008.73 452.645 1007.64C450.656 1006.73 448.315 1007.05 447.125 1009.08C446.103 1010.83 446.59 1013.7 448.573 1014.61M462.909 1098.99C463.812 1101.12 465.762 1102.26 468.042 1102.35C470.3 1102.43 471.982 1100.43 472.077 1098.31C472.137 1096.94 471.398 1095.77 470.336 1095.05C470.335 1094.97 470.333 1094.9 470.333 1094.82C470.332 1092.56 468.484 1090.88 466.297 1090.79C464.119 1090.69 462.261 1092.71 462.262 1094.82C462.263 1096.25 462.351 1097.66 462.909 1098.99M483.73 1233.13C490.171 1233.23 496.464 1234.77 502.905 1234.87C508.109 1234.96 508.093 1226.89 502.905 1226.8C496.465 1226.7 490.172 1225.16 483.73 1225.06C478.526 1224.97 478.542 1233.05 483.73 1233.13M510.512 715.79C514.282 719.383 518.939 721.153 523.531 723.397C528.183 725.671 532.27 718.707 527.604 716.426C523.714 714.525 519.408 713.12 516.218 710.082C512.455 706.497 506.742 712.2 510.512 715.79M520.631 808.842C523.277 807.521 526.034 806.011 529.053 805.906C534.241 805.724 534.248 797.651 529.053 797.833C524.523 797.99 520.545 799.88 516.558 801.871C511.904 804.194 515.997 811.155 520.631 808.842M569.146 1182.31C570.34 1180.07 572.141 1179.12 574.376 1179.07C579.571 1178.96 579.573 1170.88 574.376 1171C569.282 1171.12 564.61 1173.68 562.176 1178.23C559.727 1182.82 566.695 1186.89 569.146 1182.31M585.946 1007C587.552 1005.53 587.44 1002.79 585.946 1001.29C584.203 999.549 582.46 997.805 580.716 996.062C579.122 994.466 576.621 994.582 575.01 996.062C573.404 997.536 573.516 1000.27 575.01 1001.77C576.754 1003.51 578.496 1005.26 580.24 1007C581.836 1008.6 584.335 1008.48 585.946 1007M605.755 1280.21C611.577 1280.08 617.035 1278.41 622.516 1276.58C627.428 1274.95 625.31 1267.15 620.371 1268.8C615.606 1270.38 610.82 1272.02 605.755 1272.14C600.561 1272.26 600.559 1280.33 605.755 1280.21M631.903 1107.58C637.163 1107.43 641.526 1104.75 645.216 1101.16C648.947 1097.54 643.234 1091.83 639.509 1095.46C637.397 1097.51 634.961 1099.42 631.903 1099.51C626.711 1099.65 626.707 1107.72 631.903 1107.58M615.666 885.57C615.602 887.719 614.694 890.022 613.361 891.435C609.794 895.213 615.494 900.929 619.067 897.143C622.015 894.021 623.612 889.842 623.736 885.57C623.885 880.364 615.814 880.387 615.666 885.57M677.224 709.742C678.913 706.434 681.126 702.555 684.492 700.728C689.064 698.246 684.986 691.278 680.419 693.757C675.843 696.241 672.568 701.138 670.255 705.668C667.894 710.29 674.861 714.37 677.224 709.742M687.685 793.699C689.557 793.646 691.416 793.325 693.221 792.835C693.993 792.625 694.756 792.384 695.529 792.174C695.859 792.085 697.265 791.909 696.401 791.955C698.586 791.838 700.436 790.202 700.436 787.919C700.436 785.821 698.58 783.765 696.401 783.882C693.406 784.043 690.682 785.541 687.685 785.626C682.495 785.772 682.491 793.846 687.685 793.699M713.833 922.738H722.549C727.751 922.738 727.742 914.665 722.549 914.665H713.833C708.632 914.665 708.641 922.738 713.833 922.738M724 1279.66C726.643 1280.98 729.758 1282.24 731.899 1284.26C735.674 1287.83 741.388 1282.13 737.606 1278.55C734.879 1275.97 731.393 1274.35 728.073 1272.69C726.116 1271.71 723.712 1272.15 722.551 1274.14C721.503 1275.93 722.051 1278.69 724 1279.66M743.475 1177.66C743.813 1177.56 744.17 1177.5 744.512 1177.45C745.884 1177.27 747.32 1177.33 748.698 1177.33C753.899 1177.33 753.891 1169.25 748.698 1169.26C744.605 1169.26 740.346 1169.32 737.128 1172.18C735.494 1173.64 735.653 1176.42 737.128 1177.89C738.732 1179.5 741.208 1179.34 742.834 1177.89C742.663 1178.05 743.251 1177.72 743.475 1177.66M748.696 1040.47C747.523 1038.05 747.505 1036.48 747.503 1033.79C747.499 1028.59 739.429 1028.6 739.433 1033.79C739.435 1037.69 740.015 1041.01 741.727 1044.55C742.682 1046.52 745.478 1047.03 747.247 1046C749.23 1044.84 749.645 1042.43 748.696 1040.47M772.03 851.1C776.711 852.692 780.889 854.946 785.011 857.668C789.362 860.54 793.401 853.546 789.085 850.697C784.381 847.592 779.515 845.132 774.176 843.314C769.239 841.635 767.139 849.436 772.03 851.1M799.251 715.229C802.728 715.326 806.317 716.66 809.416 718.166C814.074 720.428 818.161 713.464 813.489 711.195C809.062 709.043 804.219 707.295 799.251 707.156C794.046 707.01 794.068 715.084 799.251 715.229M811.453 1077.93C812.821 1078 813.99 1077.26 814.715 1076.19C814.79 1076.19 814.865 1076.19 814.94 1076.19C817.201 1076.19 818.876 1074.34 818.975 1072.15C819.073 1069.98 817.05 1068.12 814.94 1068.12C813.515 1068.12 812.102 1068.21 810.778 1068.76C808.641 1069.67 807.505 1071.62 807.418 1073.9C807.332 1076.16 809.336 1077.84 811.453 1077.93M831.299 798.786C836.256 800.406 838.36 792.608 833.445 791.002C827.676 789.116 821.78 787.655 816.012 785.769C811.056 784.15 808.951 791.948 813.867 793.555C819.635 795.44 825.531 796.9 831.299 798.786M849.398 951.163C850.936 956.118 858.723 953.991 857.181 949.017C855.692 944.215 855.585 939.384 855.582 934.395C855.579 929.192 847.509 929.201 847.512 934.395C847.515 940.073 847.705 945.699 849.398 951.163M903.356 1133.67C903.65 1135.68 905.244 1137.13 907.33 1137.22C909.453 1137.32 911.442 1135.3 911.365 1133.19C911.217 1129.12 907.905 1125.81 903.843 1125.66C901.584 1125.58 899.903 1127.58 899.808 1129.7C899.715 1131.76 901.436 1133.37 903.356 1133.67M930.662 901.669C934.927 903.093 939.483 904.448 942.826 907.606C946.604 911.172 952.318 905.472 948.533 901.897C944.125 897.735 938.454 895.77 932.807 893.884C927.862 892.233 925.761 900.032 930.662 901.669M949.169 1058.5C950.341 1060.5 952.715 1060.86 954.689 1059.95C957.336 1058.71 960.259 1058.76 963.112 1058.75C968.313 1058.75 968.305 1050.68 963.112 1050.68C958.71 1050.68 954.649 1051.1 950.615 1052.97C948.631 1053.9 948.148 1056.75 949.169 1058.5M959.626 1248.82C961.886 1248.91 963.566 1246.91 963.661 1244.79C963.754 1242.73 962.034 1241.12 960.112 1240.82C959.82 1238.81 958.225 1237.36 956.14 1237.26C954.015 1237.17 952.027 1239.19 952.104 1241.3C952.253 1245.36 955.563 1248.68 959.626 1248.82M224.384 1279.35C225.755 1274.41 228.893 1270.43 231.263 1265.99C232.058 1264.49 232.335 1263.56 232.766 1262.47C233.351 1263.64 234.487 1264.52 236.194 1264.52C239.471 1264.52 243.303 1264.31 246.361 1265.71C248.35 1266.62 250.692 1266.3 251.881 1264.26C252.903 1262.51 252.415 1259.65 250.434 1258.74C245.927 1256.68 241.083 1256.45 236.194 1256.44C234.987 1256.44 234.073 1256.89 233.427 1257.56C231.559 1231.97 231.605 1206.36 233.373 1180.75C235.258 1153.38 239.597 1126.56 244.137 1099.54C246.335 1086.44 249.19 1073.21 248.635 1059.87C248.08 1046.62 242.401 1034.27 246.426 1020.98C248.04 1015.65 250.804 1010.77 252.6 1005.5C254.526 999.83 254.355 994.229 253.477 988.356C251.672 976.398 248.676 964.581 253.468 952.905C255.586 947.728 259.017 943.106 260.67 937.758C262.728 931.108 262.446 923.751 262.789 916.859C263.485 902.953 263.666 888.956 264.817 875.081C265.331 868.864 266.45 862.971 269.003 857.269C271.455 851.78 275.096 846.785 276.72 840.962C278.334 835.23 278.475 829.185 279.343 823.322C280.251 817.126 281.673 811.021 283.59 805.067C290.995 782.018 304.563 761.311 320.593 743.359C337.632 724.276 357.999 709.906 379.618 696.515C390.986 689.473 402.353 682.431 413.713 675.39C413.956 676.71 414.798 677.924 416.415 678.465C420.681 679.89 425.236 681.245 428.58 684.402C432.357 687.968 438.072 682.268 434.287 678.694C430.339 674.965 425.376 673.002 420.326 671.277C425.502 668.014 430.734 664.634 436.575 662.749C441.691 661.094 449.235 662.537 453.383 658.783C456.64 655.826 457.67 650.347 458.92 646.331C460.484 641.345 461.835 636.088 463.823 631.244C465.175 627.934 467.142 624.755 469.623 622.192C470.713 617.994 472.711 614.159 476.242 611.828C485.482 605.713 496.831 611.788 500.896 620.507C504.256 620.497 507.796 621.233 511.065 621.435C517.784 621.859 524.512 622.051 531.241 622.031C544.406 621.99 557.581 621.133 570.635 619.387C593.978 616.258 616.626 609.951 639.576 605.037C639.707 604.734 639.859 604.431 640.04 604.129C644.984 595.834 657.301 597.236 665.06 600.375C668.388 601.717 671.777 603.412 673.684 606.561C675.702 607.923 677.447 609.578 678.607 611.324C681.008 614.926 682.864 622.192 687.737 622.798C690.945 623.191 694.203 622.576 697.461 623.04C701.537 623.605 705.189 625.038 708.952 626.673C737.602 639.115 767.22 652.95 798.312 657.774C805.605 658.904 813.03 660.075 819.365 664.162C824.51 667.482 828.486 672.043 832.732 676.372C836.868 680.591 840.278 682.457 846.179 683.214C853.342 684.133 859.546 686.111 864.781 691.318C869.129 695.647 871.964 701.177 875.374 706.202C878.845 711.329 883.939 714.215 889.225 717.192C901.724 724.236 913.365 732.743 923.504 742.945C944.86 764.46 957.793 792.11 970.827 819.054C984.92 848.197 998.095 877.694 1007.23 908.816C1016.19 939.373 1021.52 970.807 1023.98 1002.53C1026.57 1035.83 1026.94 1069.25 1029.1 1102.56C1030.17 1119.2 1030.99 1135.86 1031.82 1152.51C1032.63 1168.96 1033.81 1185.44 1033.62 1201.91C1033.25 1233.75 1026.89 1265.69 1015.76 1295.5C1012.98 1302.91 1009.91 1310.23 1006.63 1317.43C1003.75 1323.76 993.918 1323.05 990.831 1317.43C990.125 1316.14 989.57 1314.81 989.106 1313.46C981.036 1313.53 972.885 1312.9 964.865 1313.65C950.701 1314.97 936.508 1315.71 922.304 1316.59C894.198 1318.33 866.042 1319.49 837.927 1321.1C835.199 1321.25 832.472 1321.41 829.745 1321.57C849.781 1259.54 847.182 1192.47 850.353 1127.96C850.608 1122.75 842.535 1122.78 842.282 1127.96C839.098 1192.75 841.809 1259.98 821.065 1322.12C813.017 1322.67 804.98 1323.33 796.97 1324.31C790.494 1325.08 783.986 1326 777.449 1325.68C770.035 1325.33 762.792 1323.63 755.558 1322.16C742.414 1319.48 729.753 1320.69 716.558 1322.34C702.445 1324.1 688.281 1325.08 674.077 1325.7C617.201 1328.19 559.941 1330.46 503.085 1326.66C489.325 1325.74 475.595 1324.45 461.926 1322.69C447.843 1320.89 433.912 1317.85 419.84 1316.12C405.969 1314.43 393.217 1319.08 379.507 1319.94C365.526 1320.81 351.17 1317.9 337.319 1316.22C332.8 1315.67 328.277 1315.14 323.752 1314.61C329.577 1274.68 332.889 1234.44 336.106 1194.22C336.521 1189.03 328.447 1189.08 328.036 1194.22C324.845 1234.13 321.607 1274.06 315.791 1313.68C291.807 1310.89 267.799 1308.07 244.065 1303.72C237.306 1302.49 230.588 1300.48 226.542 1294.45C223.547 1289.98 222.941 1284.5 224.384 1279.35" fill="black"/>
<path fill-rule="evenodd" clip-rule="evenodd" d="M405.626 432.423C407.798 413.335 404.988 373.438 404.799 371.014C403.609 355.691 410.786 295.18 424.355 300.755C447.116 282.731 477.431 278.751 505.778 276.85C564.66 272.9 627.299 281.967 672.766 321.606C695.251 342.191 717.141 372.131 715.381 403.305C735.811 432.855 764.611 473.389 739.157 507.934C730.505 518.971 716.754 523.081 705.884 531.44C684.022 549.08 670.306 574.395 648.236 591.929C589.766 644.488 490.482 655.467 433.035 595.686C388.612 552.391 395.795 487.618 403.609 432.423C408.862 395.315 401.39 469.661 405.626 432.423Z" fill="white"/>
<path fill-rule="evenodd" clip-rule="evenodd" d="M584.436 195.905C568.688 192.726 552.518 190.748 536.437 191.343L535.197 191.392C523.097 191.875 507.774 192.945 497.219 199.984C496.611 199.374 495.635 199.061 494.749 199.484C482.206 205.473 468.409 209.804 455.202 214.106C442.055 218.388 428.416 221.215 414.637 222.354C409.453 222.783 405.016 228.383 408.299 233.405C409.08 234.602 409.84 235.811 410.598 237.023C409.331 236.891 408.064 236.754 406.797 236.626C402.627 236.206 398.462 240.658 398.709 244.719C398.864 247.273 399.139 249.796 399.546 252.29C397.959 252.257 396.38 252.495 394.855 253.14C387.131 256.402 387.669 265.605 388.247 272.606C389.048 282.322 392.681 292.613 399.425 299.885C394.389 305.117 390.824 311.366 388.698 318.787C387.155 324.206 386.297 329.978 386.721 335.619L386.856 337.308C387.38 343.43 388.421 350.207 392.824 354.611C395.084 356.882 397.868 357.709 400.522 357.447C398.917 371.554 397.888 385.743 396.92 399.881L396.465 406.638C394.305 439.314 392.682 472.202 393.106 504.931C393.501 535.518 399.542 565.207 418.296 590.042C435.376 612.656 459.899 629.327 487.641 635.665C502.592 639.086 517.855 639.328 532.987 637.148C540.322 636.088 547.705 634.464 554.667 631.9C562.373 629.055 567.912 624.867 573.097 618.59C575.549 615.613 574.369 609.276 569.485 609.871C562.1 610.767 555.357 611.847 548.276 614.032L547.262 614.352C540.21 616.612 532.906 618.297 525.533 619.014C510.43 620.477 495.097 619.004 480.63 614.422C457.074 606.955 436.787 590.314 423.784 569.405C408.349 544.621 406.604 516.486 406.827 487.988C407.066 456.717 408.083 425.427 409.742 394.188L410.025 388.982C410.903 372.907 411.75 356.821 412.495 340.735C412.728 335.69 413.081 330.604 413.717 325.568C419.537 322.157 424.752 317.455 428.152 311.652C434.982 314.478 442.164 316.516 448.773 318.141C464.081 321.907 479.973 322.821 495.554 320.463C499.757 322.2 504.043 323.727 508.395 325.04C509.572 325.562 510.748 326.075 511.923 326.577C522.416 331.068 533.059 334.872 544.134 337.658L546.855 338.336C552.684 339.774 559.015 341.189 565.218 341.634C566.237 342.027 567.337 342.36 568.538 342.653C574.186 344.025 580.049 344.459 585.838 343.975C591.478 343.5 595.554 337.799 592.447 332.461C590.177 328.565 587.886 324.68 585.576 320.805C593.616 324.155 601.918 326.941 610.291 329.302C618.745 331.684 627.32 333.692 635.906 335.538C640.496 336.517 645.105 337.385 649.685 338.364C652.964 339.06 657.998 339.424 660.672 341.583C663.627 343.955 664.464 349.485 665.585 352.896C667.058 357.326 668.44 361.776 669.701 366.277C672.212 375.258 674.27 384.37 675.864 393.574C677.458 402.787 678.528 412.091 679.123 421.426C679.717 430.75 679.456 440.135 680.413 449.419C680.929 454.344 686.214 456.877 690.118 453.435C690.576 453.032 691.038 452.624 691.495 452.211L692.176 451.589C695.516 448.561 698.754 445.352 701.427 441.74C701.911 441.074 702.375 440.377 702.809 439.671C702.879 439.671 702.94 439.651 703.01 439.6L703.751 439.042C711.91 432.968 725.541 425.048 733.497 435.14C736.032 438.355 737.33 442.449 738.407 446.398L740.297 453.466C741.52 458.081 742.67 462.721 743.343 467.442C744.867 478.018 744.1 490.208 736.826 498.685C733.92 502.076 729.915 504.497 725.447 505.133C722.955 505.476 720.493 505.053 718.021 504.74C715.51 504.427 713.089 504.931 710.577 504.689C706.582 504.296 704.836 509.079 706.329 512.086C707.137 513.701 708.086 515.093 709.164 516.274C708.298 517.021 707.469 517.828 706.672 518.676C704.312 519.433 702.194 521.057 700.61 523.207C699.328 524.943 698.664 526.83 698.552 528.818C698.411 529.312 698.29 529.817 698.178 530.331L696.014 533.845C695.538 534.616 695.064 535.377 694.588 536.124C689.08 544.802 682.966 552.149 675.369 559.071C668.055 565.732 660.117 571.696 653.246 578.84L652.437 579.689C646.031 586.441 639.279 594.614 641.786 604.432C642.432 606.955 645.954 608.771 648.253 607.066C655.647 601.576 659.371 592.877 665.644 586.217C672.102 579.355 679.254 573.189 685.73 566.347C691.854 559.889 696.686 552.573 700.327 544.52C701.781 546.124 703.898 547.265 706.834 547.709C711.878 548.465 716.58 545.509 718.778 541.139C720.191 541.765 721.633 542.33 723.087 542.774C730.733 545.115 735.544 536.608 732.659 530.321C731.117 526.951 729.19 524.024 726.798 521.562C734.274 520.533 741.881 516.668 746.794 511.844C759.12 499.724 760.815 481.509 758.041 465.313C756.568 456.725 754.027 448.037 750.727 439.974C750.153 438.571 749.536 437.158 748.862 435.765C749.235 435.755 749.618 435.594 749.86 435.281C752.09 432.234 754.802 429.741 756.458 426.33C757.981 423.202 759.675 420.033 760.876 416.774C763.347 410.103 764.558 402.575 765.365 395.521C767.029 381.081 766.384 366.731 764.174 352.381C760.412 327.94 751.325 304.55 737.937 284.026C738.666 283.643 739.365 283.181 740.016 282.634L740.337 282.353L740.86 281.881C744.68 278.423 744.35 271.941 740.86 268.438L739.757 267.333C738.361 265.946 737.158 264.846 734.903 263.336C734.57 263.113 734.23 262.903 733.886 262.707C735.066 260.526 735.476 257.974 734.654 255.16C731.789 245.355 717.686 245.702 708.747 249.978C698.857 241.149 687.892 233.485 676.006 227.279C647.698 212.505 615.69 202.202 584.436 195.905ZM730.762 454.142C725.476 452.416 718.455 456.039 713.704 458.219C707.681 460.984 702.556 465.071 697.593 469.39C695.121 471.549 694.678 475.081 695.293 478.099C695.354 478.401 695.414 478.714 695.486 479.027C696.141 482.246 699.733 484.779 702.91 484.688C709.558 484.507 712.725 478.765 716.489 473.901C716.932 474.688 717.487 475.414 718.174 475.959L718.637 476.322C720.199 477.512 721.921 478.463 723.984 478.371C725.447 478.3 726.848 477.927 728.14 477.251C731.369 475.545 732.79 471.368 731.913 467.967C731.369 465.828 730.118 464.152 728.483 462.992L729.093 462.575C730.396 461.668 731.585 460.711 732.511 459.299L732.72 458.965H732.64C733.649 457.23 732.992 454.868 730.762 454.142Z" fill="black"/>
<path fill-rule="evenodd" clip-rule="evenodd" d="M481.778 555.695C489.21 557.848 497.187 558.04 504.762 555.817C511.632 553.8 518.687 549.361 523.744 543.487C528.236 538.269 531.145 531.929 531.031 525.16C531.018 524.387 530.742 523.742 530.317 523.241C529.859 522.702 529.22 522.332 528.535 522.171C527.831 522.006 527.087 522.064 526.453 522.352C525.879 522.613 525.388 523.056 525.08 523.703C524.303 524.724 523.529 525.731 522.752 526.709C516.503 534.427 510.452 540.195 501.056 542.264C495.958 543.386 490.867 542.888 486.195 541.176C481.195 539.342 476.674 536.118 473.132 531.993C471.531 530.128 469.641 529.367 467.793 529.354C465.698 529.34 463.628 530.313 462.069 531.869C460.536 533.399 459.509 535.477 459.416 537.651C459.335 539.559 459.957 541.552 461.612 543.331C467.065 549.188 474.132 553.479 481.778 555.695ZM482.008 459.028C474.39 463.66 462.783 474.461 470.978 485.944C480.624 496.069 494.513 484.46 501.357 479.21C507.703 475.141 514.833 485.606 508.945 490.357C459.49 526.984 439.42 460.239 478.155 453.582C482.42 452.848 484.004 457.595 482.008 459.028ZM553.269 438.647C555.717 437.08 558.598 436.543 561.79 437.995C564.284 439.13 568.659 442.913 571.704 447.885C573.787 451.287 575.264 455.278 574.956 459.436C574.885 460.401 575.241 461.113 575.804 461.639C576.248 462.055 576.89 462.36 577.644 462.456C578.284 462.537 579 462.464 579.582 462.282C580.69 461.936 581.276 461.217 581.497 460.63C583.629 454.967 582.711 448.647 580.321 442.945C577.097 435.25 571.241 428.805 567.405 426.727C560.84 423.17 553.095 423.006 546.521 426.63C540.925 429.714 537.425 434.694 533.945 439.77C533.205 440.849 532.471 441.92 531.712 442.972C530.191 445.081 530.04 447.172 530.629 448.965C531.281 450.952 532.945 452.628 535.026 453.506C536.948 454.317 539.18 454.431 541.155 453.598C542.823 452.894 544.354 451.522 545.323 449.194C546.955 445.273 549.673 440.947 553.269 438.647V438.647ZM428.918 447.37C430.595 448.244 431.907 448.507 433.767 447.95C434.796 447.641 435.812 447.048 436.608 446.252C437.397 445.463 437.966 444.482 438.187 443.393C438.731 440.707 440.201 438.192 442.295 436.552C444.085 435.151 446.344 434.408 448.85 434.827C451.554 435.279 454.13 437.014 455.904 439.059C456.497 439.743 456.962 440.52 457.43 441.293C458.304 442.736 459.154 444.078 460.359 445.139C460.816 445.542 461.505 445.821 462.172 445.821C462.443 445.821 462.718 445.777 462.98 445.695C465.672 442.993 466.189 440.943 466.103 438.91C466.012 436.778 465.171 434.619 463.813 432.605C460.628 427.881 454.58 424.007 450.499 423.129C444.909 421.928 439.359 423.37 434.908 426.493C430.329 429.706 426.936 434.695 425.878 440.317C425.624 441.671 425.732 443.132 426.247 444.399C426.751 445.638 427.629 446.698 428.918 447.37ZM540.942 388.273C544.296 391.542 548.266 392.049 552.283 392.499C554.514 392.752 556.296 392.955 558.049 393.351C562.867 394.439 567.63 396.078 571.975 398.438C576.518 400.905 581.468 403.88 585.029 407.692C585.876 408.599 586.674 409.55 587.473 410.504C588.202 411.374 588.904 412.211 589.644 413.019C590.494 413.946 591.301 414.918 592.104 415.887C592.6 416.705 592.698 416.906 592.798 417.116C592.949 417.431 593.124 417.783 593.324 418.161C593.597 418.678 593.918 419.244 594.254 419.758C594.812 420.697 595.112 420.955 595.371 421.071C595.801 421.262 596.208 421.357 596.604 421.305C596.975 421.258 597.324 421.079 597.669 420.788C599.391 419.332 599.899 416.944 599.847 414.408C599.768 410.561 598.349 406.301 597.041 403.682C594 397.597 589.783 391.272 584.712 386.73C578.926 381.547 572.595 377.622 565.323 374.918C560.805 373.237 555.573 371.694 550.65 371.889C547.106 372.029 543.723 373.083 540.93 375.714C539.214 377.329 538.391 379.627 538.391 381.923C538.391 384.265 539.246 386.62 540.942 388.273ZM422.096 418.209C422.31 418.559 422.605 418.8 422.933 418.945C423.278 419.096 423.662 419.14 424.031 419.078C424.399 419.016 424.748 418.849 425.025 418.595C425.29 418.351 425.492 418.027 425.583 417.631C427.81 407.847 432.134 400.567 441.363 395.873C445.903 393.564 451.124 392.097 456.066 390.927C457.502 390.587 459.02 390.366 460.548 390.143C465.338 389.444 470.162 388.642 473.284 384.77C475.166 382.437 475.955 379.453 475.509 376.725C475.089 374.156 473.588 371.8 470.86 370.389C464.068 366.876 455.628 370.323 448.769 373.259C448.261 373.477 447.761 373.691 447.273 373.897C440.565 376.729 434.448 380.467 429.42 385.813C425.43 390.055 421.733 396.325 420.244 402.775C419.006 408.141 419.297 413.619 422.096 418.209Z" fill="black"/>
<path fill-rule="evenodd" clip-rule="evenodd" d="M460.641 571.994C470.036 563.621 480.567 546.788 494.064 560.107C497.402 563.87 498.754 572.306 503.858 573.961C510.637 576.161 517.356 568.986 519.666 563.476C529.119 532.862 490.044 524.465 467.784 529.411C456.909 533.879 448.899 551.861 448.415 561.246C448.102 567.553 453.438 576.827 460.641 571.994M389.763 524.807C389.855 524.4 389.983 524.033 390.137 523.698C394.292 522.127 397.58 523.73 399.612 526.723C399.545 527.467 399.323 528.22 399.183 528.958C400.751 532.262 402.165 536.35 404.289 539.205C404.709 539.237 405.144 539.193 405.562 539.072C440.782 542.751 423.587 505.888 459.31 496.732C486.924 492.175 536.833 497.395 549.86 526.147C560.133 572.07 612.372 540.071 629.524 516.188C647.825 494.452 659.658 467.891 671.067 442.118C673.478 436.664 681.003 440.564 680.185 445.797C690.731 466.96 690.38 492.38 692.992 515.564C697.434 561.817 701.763 626.682 658.801 654.925C602.826 718.215 463.048 740.549 398.487 682.397C376.138 634.332 378.893 575.694 389.763 524.807" fill="black"/>
<path fill-rule="evenodd" clip-rule="evenodd" d="M426.529 383.982C402.85 383.982 389.338 389.075 384.386 389.472L384.237 389.483C382.178 389.615 380.33 389.787 378.392 390.537C371.264 393.283 370.103 400.761 374.262 405.474C374.554 415.226 373.272 426.62 375.472 436.404C378.186 477.648 397.576 484.608 408.598 487.148C414.131 488.424 420.69 488.932 426.567 487.585C436.595 487.211 446.508 484.071 454.989 478.603C466.802 470.982 475.575 459.269 478.422 445.367C479.772 438.741 480.402 431.844 479.668 425.108L479.559 424.18C483.398 422.343 487.848 421.996 492.434 421.833C494.625 421.755 496.785 421.685 498.883 421.779C500.933 422.008 502.959 422.313 504.992 422.728C507.211 423.398 509.307 424.503 511.242 426.254L511.375 428.81C511.739 435.194 512.577 441.597 513.869 447.86C515.777 457.101 518.846 465.927 525.378 472.482C527.589 475.785 530.325 478.734 533.647 481.288C545.713 490.58 562.105 493.992 577.15 492.707C607.694 490.1 625.348 465.846 629.417 455.479L629.66 454.851C632.599 447.144 634.942 437.144 644.229 435.488L646.204 435.133C650.442 434.337 654.353 433.229 656.838 429.093C657.927 427.287 658.487 425.267 658.625 423.208C660.074 423.32 661.522 423.426 662.965 423.53C674.474 425.964 743.504 428.029 749.013 428.029C749.013 428.029 759.605 432.488 764.077 429.033C767.176 426.63 768.196 423.428 766.49 419.801C763.915 414.343 752.038 411.06 746.764 410.02C746.764 410.02 661.657 410.727 655.531 409.565C651.741 405.656 644.962 406.191 639.297 405.573C634.607 402.228 628.047 399.988 622.865 398.488C621.809 398.088 620.763 397.701 619.746 397.336C610.246 393.952 600.371 392.159 590.346 391.196C580.007 390.214 569.639 390.658 559.361 392.067C555.03 392.655 550.739 393.415 546.479 394.409C538.85 395.415 531.266 397.072 523.634 399.037L522.107 399.435C514.071 401.542 505.812 403.365 497.493 401.936C490.721 400.781 484.208 398.173 477.963 395.354L477.15 394.985C463.42 388.714 441.977 383.982 426.529 383.982ZM547.305 406.912C552.371 405.797 554.534 413.611 549.452 414.728C545.853 415.52 542.803 417.335 540.742 420.411L540.525 420.745C537.76 425.147 530.768 421.084 533.552 416.653C536.685 411.668 541.553 408.176 547.305 406.912ZM398.924 402.067C400.71 400.809 403.412 401.743 404.449 403.521C405.59 405.479 404.842 407.66 403.17 408.941L403 409.066C401.465 410.148 399.971 412.087 399.783 414.073L399.767 414.322C399.566 419.521 391.488 419.547 391.69 414.322C391.887 409.21 394.846 404.939 398.924 402.067Z" fill="black"/>
<path fill-rule="evenodd" clip-rule="evenodd" d="M1654.65 819.198C1645.86 785.089 1637.77 770.627 1622.15 758.772C1607.54 747.683 1586.21 738.37 1555.1 731.567C1522.68 725.899 1521.76 709.051 1513.64 681.972C1511.27 673.831 1499.52 671.665 1494.45 677.532C1493.73 676.761 1492.99 676.054 1492.22 675.415C1492.91 671.533 1487.25 660.405 1487.44 656.691C1489.41 617.928 1476.74 598.462 1445.09 591.226C1438.21 589.652 1391.47 588.725 1384.76 590.58C1355.43 598.691 1326.56 624.443 1330.98 655.464C1321.77 667.498 1312.76 674.844 1298.55 678.721C1266.94 682.735 1235.33 686.305 1203.71 689.361C1141.81 699.07 1083.78 731.837 1044.12 779.625C1040.46 784.036 1039.4 790.023 1042.63 794.727C1040.1 805.562 1025.86 831.844 1037.07 839.272C1018.64 883.336 976.259 968.507 976.179 992.84C975.845 1095.06 986.886 1228.11 1087.74 1284.68C1091.78 1288.65 1092.36 1293.05 1094.11 1298.95C1098.54 1317.56 1114.64 1330.86 1132.27 1329.78C1219.1 1331.71 1303.2 1321.11 1390.03 1320.6C1428.32 1320.37 1474.37 1326.09 1507.63 1329.9C1540.9 1333.71 1574.47 1330.34 1606.4 1320.6C1609.09 1324.84 1614.53 1327.31 1620.05 1326.09C1653.14 1319.52 1679.9 1299.12 1703.21 1276.83C1710.34 1263.87 1738.15 1226.95 1727.09 1214.09C1737.12 1171.72 1736.6 1126.19 1718.79 1085.83C1721.31 1078.44 1716.71 1070.31 1718.79 1062.67C1720.29 1057.14 1724.14 1054.86 1726.08 1049.38C1728.8 1041.68 1725.84 1031.35 1722.77 1023.49C1721.51 1019.57 1725.08 1015.35 1726.08 1011.36C1730.79 992.503 1720 994.165 1712.23 981.561C1712.34 981.522 1714.36 972.524 1714.35 972.569C1715.54 966.145 1712.56 957.915 1709.96 952.553C1708.2 948.928 1704.44 946.66 1700.69 947.076C1704.46 934.279 1709.23 923.631 1714.35 911.302C1723.42 889.569 1734.89 868.759 1747.91 849.088C1753.24 841.033 1746.08 831.701 1737.46 831.152C1709.53 829.378 1681.92 825.357 1654.65 819.198Z" fill="white"/>
<path fill-rule="evenodd" clip-rule="evenodd" d="M1573.16 983.544C1562 979.164 1549.97 976.743 1537.89 975.804C1544.39 974.663 1550.92 973.563 1557.5 972.998C1562.09 972.605 1566.34 972.645 1569.79 976.128C1572.09 978.448 1573.17 981.435 1574.69 984.179C1574.19 983.957 1573.68 983.746 1573.16 983.544ZM1693.03 942.593C1674.74 943.523 1656.43 947.872 1639.89 955.752C1633.12 958.981 1626.98 963.644 1625.19 971.313C1624.28 975.229 1624.5 979.276 1624.98 983.232C1625.35 986.228 1625.44 990.053 1628.04 992.081C1628.49 992.424 1628.96 992.686 1629.45 992.878C1623.35 995.633 1617.54 998.944 1612.37 1002.35C1607.65 1005.47 1602.8 1010.28 1600.62 1015.69C1600.44 1015.08 1600.26 1014.5 1600.08 1013.96C1596.37 1002.98 1590.65 993.989 1581.64 987.944C1583.23 987.228 1584.33 985.532 1583.82 983.192C1581.68 973.412 1572.65 964.915 1562.45 965.521C1551.28 966.177 1539.29 970.243 1529.19 975.38C1525.51 975.299 1521.83 975.35 1518.2 975.511C1517.58 975.531 1517.61 976.38 1518.2 976.45C1521.15 976.824 1524.1 977.237 1527.04 977.721C1534.04 978.842 1541.02 980.264 1547.85 982.03C1556.04 984.15 1564.52 986.278 1572.17 989.982C1587.02 997.178 1596.21 1015.99 1594.33 1032.36C1594.02 1035.04 1592.98 1043.15 1589.25 1042.32C1586.11 1041.61 1584.86 1035.04 1583.76 1032.61C1580.81 1026.15 1575.5 1021.93 1569.14 1019.08C1561.66 1015.71 1553.66 1013.44 1545.91 1010.8C1541.53 1009.3 1537.14 1007.79 1532.74 1006.3C1528.24 1004.76 1523.96 1002.63 1519.17 1003.71C1516.28 1004.36 1515.94 1007.81 1517.57 1009.79C1520.04 1012.81 1523.71 1013.7 1527.27 1014.94C1531.97 1016.57 1536.66 1018.21 1541.36 1019.84C1548.61 1022.37 1556.21 1024.49 1563.28 1027.58L1563.06 1028.09C1562.48 1027.93 1561.8 1028.5 1561.92 1029.21C1562.97 1035.74 1564.45 1043.28 1562.81 1049.82C1561.52 1055.01 1556.97 1060.75 1551.06 1059.23C1551.99 1058.38 1552.33 1056.92 1551.71 1055.57C1549.36 1050.56 1518.7 1030.8 1515.96 1038.14C1515.87 1038.4 1516.15 1038.59 1516.38 1038.55C1518.71 1038.07 1522.61 1042.04 1524.48 1043.3C1527.17 1045.12 1529.9 1046.9 1532.57 1048.76C1535.48 1050.8 1538.33 1052.94 1541.1 1055.15C1543.28 1056.89 1544.93 1058.69 1547.43 1059.57C1546.12 1060.2 1545.08 1061.36 1544.63 1062.84C1543.5 1066.71 1541.33 1069.99 1537.54 1071.69C1533.58 1073.47 1529.11 1072.35 1524.93 1072.78C1519.24 1073.36 1514.28 1076.06 1510.13 1079.93C1501.43 1088.06 1497.06 1102.39 1484.88 1106.23C1477.61 1108.53 1469.54 1107.08 1462.17 1106.04C1453.95 1104.88 1445.94 1103.96 1437.66 1105.17C1429.73 1106.34 1422.24 1109.08 1414.99 1112.43C1408.2 1115.57 1400.7 1119.12 1394.68 1123.8C1393.44 1119.98 1392.18 1116.19 1391.23 1112.29C1389 1103.06 1387.79 1093.65 1387.49 1084.16C1387.22 1075.13 1387.73 1066.06 1388.5 1057.07C1388.89 1052.58 1389.49 1048.11 1389.87 1043.62C1389.97 1042.49 1390.18 1041.28 1390.33 1040.07C1401.08 1033.72 1412.38 1028.85 1423.77 1023.85C1423.8 1023.84 1423.83 1023.82 1423.86 1023.81C1424.21 1023.65 1424.56 1023.5 1424.91 1023.34C1424.9 1023.32 1424.89 1023.3 1424.87 1023.28C1426.17 1022.49 1427.08 1021.43 1427.62 1020.24C1444.04 1009.35 1457.76 994.484 1467.99 977.146C1472.27 969.88 1476.4 962.342 1482.01 955.975C1487.98 949.183 1495.07 945.146 1503.85 943.047C1514.11 940.586 1524.68 939.112 1535.19 938.274C1540.93 937.821 1547.35 937.114 1553.6 937.145C1557.96 937.174 1562.23 937.547 1566.14 938.627C1571.94 940.222 1575.33 944.633 1578.97 949.092C1582.45 953.372 1585.91 957.66 1589.16 962.121C1592.24 966.348 1595.15 970.718 1597.67 975.299C1599.18 978.044 1600.58 980.871 1601.76 983.786C1602.18 984.816 1602.72 985.986 1602.97 987.056C1603.23 988.135 1602.76 989.277 1603.97 989.277C1598.98 989.346 1599.03 997.328 1603.99 997.036C1623.42 995.906 1595.59 957.963 1591.52 952.674C1585.76 945.187 1579.82 935.418 1570.6 931.937C1570.47 931.886 1570.33 931.837 1570.2 931.795C1572.88 929.252 1575 926.206 1577.03 923.107C1579.12 919.918 1581.61 916.265 1582.29 912.481C1582.73 910.07 1579.73 908.696 1578.31 910.805C1576.24 913.883 1575.24 917.779 1573.7 921.16C1572.12 924.59 1570.21 927.83 1568.69 931.291C1565.05 930.171 1561.12 929.657 1557.11 929.486C1562.17 922.644 1570.8 909.443 1571.84 907.748C1576.62 899.897 1581.17 891.805 1585.52 883.7C1590.22 874.921 1594.25 865.778 1598.75 856.898C1601.3 851.863 1603.87 846.786 1606.71 841.902C1607.68 840.227 1608.73 838.552 1609.92 837.028C1610.16 836.726 1610.45 836.474 1610.72 836.19C1611.03 836.019 1611.36 835.827 1611.54 835.727C1613.17 834.789 1613.75 832.609 1614.9 831.225C1616.73 828.996 1618.89 828.734 1621.66 828.702C1627.55 828.642 1633.46 828.874 1639.34 829.035C1647.99 829.278 1656.62 829.621 1665.26 830.075C1667.87 830.216 1670.47 830.357 1673.09 830.519C1685.64 831.267 1698.19 832.245 1710.71 833.446C1721.79 834.505 1732.87 836.232 1743.95 837.059C1728.94 872.732 1712.3 907.759 1693.45 941.565C1693.26 941.907 1693.12 942.25 1693.03 942.593ZM1609.74 1034.49C1607.32 1035.61 1604.97 1036.99 1602.78 1038.56C1603.15 1036.11 1603.24 1033.53 1603.13 1030.93C1604.94 1032.87 1607.25 1033.98 1609.74 1034.49ZM1713.09 973.13C1712.92 973.15 1712.76 973.24 1712.68 973.412C1709.33 980.325 1710.73 988.044 1716.2 993.464C1719.07 996.289 1725.31 999.478 1725.11 1004.12C1724.94 1007.87 1720.85 1011.02 1719.11 1014.12C1717.48 1017.01 1716.88 1020.18 1718.18 1023.3C1719.84 1027.31 1724.49 1028.9 1726.09 1032.84C1728.11 1037.84 1724.83 1043.86 1722.53 1048.21C1720.39 1052.24 1717.62 1056.26 1715.79 1060.52C1703.49 1066.89 1692.48 1076.66 1683.02 1086.58C1672.66 1097.43 1663.77 1110.19 1647.32 1109.87C1645.68 1109.84 1644.43 1110.71 1643.68 1111.91C1639.1 1112.12 1634.51 1112.21 1629.93 1112.23C1621.88 1112.27 1613.83 1112.19 1605.79 1111.94C1605.22 1109.99 1605.64 1107.35 1605.61 1105.7C1605.51 1100.4 1605.46 1095.11 1605.23 1089.82C1605.17 1088.34 1605.11 1086.86 1605.05 1085.39C1607.95 1090.62 1613.6 1093 1620.03 1092.64C1630.38 1092.04 1640.79 1090.34 1651.04 1088.82C1656.44 1088.02 1661.83 1087.11 1667.2 1086.14C1671.62 1085.36 1677.86 1085.56 1680.94 1082.01C1681.67 1081.19 1681.71 1079.67 1680.57 1079.12C1677.51 1077.62 1675.59 1078.45 1672.23 1079.1C1668.13 1079.9 1664.03 1080.65 1659.91 1081.36C1652.01 1082.73 1644.09 1084 1636.15 1085.12C1631.63 1085.76 1627.1 1086.38 1622.57 1086.88C1618.62 1087.3 1614.16 1087.88 1610.97 1084.9C1604.55 1078.89 1608.15 1068.81 1612.21 1062.73C1612.29 1062.61 1612.29 1062.5 1612.26 1062.4C1616.1 1061.5 1619.92 1060.45 1623.73 1059.71C1631.07 1058.3 1638.45 1057.11 1645.85 1056.05C1661.04 1053.88 1676.33 1052.45 1691.61 1051.01C1695.39 1050.64 1695.43 1044.69 1691.61 1045.04C1669.66 1047.05 1647.61 1048.96 1625.96 1053.18C1620.54 1054.23 1615.15 1055.42 1609.79 1056.77C1607.26 1057.39 1604.55 1058.37 1601.89 1058.4C1601.73 1058.4 1601.57 1058.4 1601.41 1058.39C1596.21 1058.23 1595.46 1053.78 1598.31 1050.08C1598.67 1049.62 1599.03 1049.17 1599.4 1048.73C1604.45 1042.72 1610.73 1038.7 1617.21 1034.55C1624.46 1033.56 1631.69 1031.36 1638.8 1029.74C1656.33 1025.75 1673.86 1021.75 1691.41 1017.76C1694.84 1016.98 1693.38 1011.69 1689.94 1012.47C1676.63 1015.48 1663.31 1018.5 1649.99 1021.52L1630.5 1025.94C1626.61 1026.82 1621.75 1028.58 1617.17 1029.22C1614.91 1029.53 1612.72 1029.57 1610.74 1029.11C1604.36 1027.59 1604.03 1019.61 1606.79 1014.87C1609.87 1009.54 1615.7 1006.21 1620.88 1003.19C1629.85 997.954 1639.39 994.19 1648.71 989.851C1650.37 989.488 1652.02 989.124 1653.68 988.761C1663.3 986.642 1674.3 985.602 1683.35 981.718C1686.07 980.567 1684.58 976.288 1681.9 976.349C1674.87 976.501 1667.52 979.003 1660.65 980.486C1653.21 982.101 1645.77 983.705 1638.33 985.31C1637.59 985.471 1633.17 986.884 1632.5 986.571C1632.08 986.369 1631.93 984.897 1631.78 983.927C1631.33 980.738 1631 977.389 1631.49 974.189C1632.58 967.014 1638.56 963.644 1644.62 960.889C1658.09 954.763 1672.87 950.93 1687.58 949.395C1690.97 949.041 1694.36 948.82 1697.77 948.708C1701.77 948.587 1705.07 947.881 1707.1 951.827C1710.29 958.043 1712.05 966.036 1713.09 973.13ZM1694.38 1198.51C1691.44 1188.35 1692.24 1177.51 1690.23 1167.14C1689.19 1161.8 1687.77 1156.49 1686.22 1151.27C1684.98 1147.06 1682.89 1142.57 1682.66 1138.17C1682.64 1137.88 1682.99 1137.71 1683.23 1137.85C1687.37 1140.22 1690.55 1145.35 1692.91 1149.38C1695.74 1154.2 1697.9 1159.24 1699.65 1164.55C1703.12 1175.11 1705.97 1187.86 1701.49 1198.51C1700.16 1201.68 1695.48 1202.32 1694.38 1198.51ZM1603.62 1063.94C1606.1 1063.7 1608.58 1063.22 1611.06 1062.67C1608.29 1065.38 1605.73 1068.63 1604.3 1072.25C1604.08 1069.47 1603.8 1066.71 1603.43 1063.95C1603.49 1063.95 1603.56 1063.95 1603.62 1063.94ZM1579.77 1275.43C1575.39 1272.37 1572.2 1268.1 1568.49 1264.33C1564.84 1260.63 1570.55 1254.92 1574.2 1258.62C1577.37 1261.84 1580.12 1265.85 1583.84 1268.46C1585.64 1269.71 1586.47 1271.97 1585.29 1273.98C1584.25 1275.75 1581.56 1276.67 1579.77 1275.43ZM1555.36 1158.02C1563.35 1154.56 1571.21 1150.8 1579.57 1148.31C1584.57 1146.82 1586.68 1154.61 1581.72 1156.09C1574.02 1158.39 1566.79 1161.81 1559.44 1164.99C1554.71 1167.03 1550.61 1160.07 1555.36 1158.02ZM1471 1155.6C1469.04 1150.78 1476.86 1148.7 1478.78 1153.45C1481 1158.92 1483.54 1164.26 1485.75 1169.73C1487.7 1174.55 1479.9 1176.63 1477.97 1171.87C1475.75 1166.4 1473.21 1161.07 1471 1155.6ZM1387.73 1251.89C1386.42 1253.62 1384.26 1254.57 1382.21 1253.34C1380.49 1252.31 1379.44 1249.57 1380.76 1247.82C1384.6 1242.69 1388.5 1237.62 1393.01 1233.05C1396.66 1229.34 1402.37 1235.05 1398.72 1238.76C1394.69 1242.84 1391.16 1247.31 1387.73 1251.89ZM1375.82 711.609C1379.52 714.14 1382.77 717.215 1385.93 720.378C1389.61 724.056 1383.9 729.764 1380.23 726.086C1377.56 723.42 1374.87 720.713 1371.75 718.58C1369.94 717.347 1369.13 715.053 1370.3 713.057C1371.34 711.269 1374.02 710.38 1375.82 711.609ZM1496.97 841.521C1494.87 845.716 1492.99 849.829 1492.87 854.597C1492.74 859.791 1484.67 859.794 1484.8 854.597C1484.95 848.357 1487.25 842.946 1490 837.447C1492.32 832.791 1499.28 836.886 1496.97 841.521ZM1541.42 737.184C1545.76 734.291 1549.79 741.287 1545.49 744.155C1542.01 746.479 1538.52 748.805 1535.03 751.13C1530.69 754.023 1526.66 747.027 1530.96 744.159C1534.44 741.834 1537.93 739.509 1541.42 737.184ZM1348.62 919.608C1347.88 924.739 1340.1 922.544 1340.84 917.463C1341.97 909.61 1343.36 901.861 1345.49 894.211C1346.88 889.206 1354.66 891.345 1353.27 896.358C1351.14 904.007 1349.75 911.756 1348.62 919.608ZM1320.32 1012.09C1315.13 1011.98 1315.13 1003.9 1320.32 1004.01C1325.03 1004.11 1329.65 1005.35 1334.18 1006.48C1339.23 1007.74 1337.07 1015.53 1332.04 1014.27C1328.2 1013.31 1324.3 1012.17 1320.32 1012.09ZM1309.88 1198.37C1308.09 1199.24 1306.26 1200.02 1304.46 1200.85C1300.85 1202.5 1297.24 1204.15 1293.63 1205.81C1286.11 1209.26 1278.59 1212.73 1271.08 1216.21C1256.05 1223.17 1240.91 1229.88 1225.84 1236.76C1210.47 1243.79 1195.15 1250.9 1179.84 1258.05C1172.63 1261.42 1165.37 1264.66 1158.11 1267.94C1151.91 1270.75 1144.25 1275.65 1137.44 1276.11C1137.09 1276.13 1136.98 1275.69 1137.18 1275.46C1139.75 1272.54 1143.85 1270.84 1147.23 1268.93C1150.68 1266.99 1154.2 1265.16 1157.7 1263.31C1165 1259.44 1172.3 1255.6 1179.67 1251.87C1194.41 1244.41 1209.18 1237.01 1223.95 1229.61C1239.01 1222.06 1254.05 1214.47 1269.25 1207.19C1276.4 1203.76 1283.57 1200.35 1290.73 1196.94C1294.61 1195.1 1298.5 1193.25 1302.38 1191.42C1304.06 1190.62 1305.72 1189.77 1307.43 1189.05C1309.71 1188.11 1311.45 1188.3 1313.8 1187.72C1317.63 1186.78 1319.29 1191.65 1316.35 1193.78C1313.92 1195.52 1312.65 1197.02 1309.88 1198.37ZM1256 1281.15C1255.17 1279.14 1256.91 1276.69 1258.82 1276.19C1261.11 1275.58 1262.95 1276.97 1263.78 1279C1266 1284.39 1269.15 1289.33 1273.2 1293.5C1276.83 1297.23 1271.13 1302.94 1267.5 1299.21C1262.41 1293.98 1258.76 1287.87 1256 1281.15ZM1216.36 1151.57C1212.69 1147.89 1218.39 1142.18 1222.07 1145.86L1232.53 1156.32C1236.21 1160 1230.5 1165.71 1226.82 1162.03L1216.36 1151.57ZM1109.06 1134.51C1101.54 1136.72 1092.77 1138.74 1087.64 1145.16C1087.39 1145.48 1086.97 1145.07 1087.12 1144.76C1093.68 1131.15 1112.51 1126.37 1125.54 1121.61C1134.76 1118.23 1144.21 1115.44 1153.75 1112.94C1152.8 1102.05 1155.43 1090.39 1156.34 1079.56C1157.32 1068 1158.11 1056.4 1158.52 1044.8C1158.93 1032.97 1159.03 1021.06 1158.65 1009.23C1158.26 997.433 1156.73 985.786 1156.06 974.034C1155.99 972.897 1157.58 972.843 1157.92 973.782C1161.88 984.688 1163.57 996.768 1164.86 1008.27C1166.19 1020.11 1166.63 1031.93 1166.46 1043.84C1166.28 1056.09 1165.57 1068.31 1164.59 1080.52C1164.13 1086.31 1163.59 1092.09 1163.08 1097.88C1162.7 1102.29 1162.52 1106.67 1161.62 1110.94C1167.37 1109.53 1173.13 1108.2 1178.88 1106.9C1197.21 1102.76 1215.61 1098.92 1233.86 1094.45C1242.82 1092.25 1251.65 1089.62 1260.56 1087.29C1268.96 1085.09 1277.83 1082.42 1286.45 1081.44C1289.52 1081.09 1289.91 1085.3 1287.88 1086.73C1280.87 1091.65 1271.56 1095.08 1263.47 1097.83C1255.35 1100.6 1246.9 1102.59 1238.58 1104.63C1221.22 1108.91 1203.69 1112.4 1186.19 1116.04C1168.71 1119.67 1151.2 1123.28 1133.92 1127.76C1125.6 1129.92 1117.31 1132.09 1109.06 1134.51ZM1067.85 918.532C1063.36 921.171 1059.3 914.191 1063.78 911.561C1069.64 908.122 1075.88 905.538 1082.18 903.017C1087.01 901.083 1089.08 908.894 1084.32 910.802C1078.66 913.067 1073.12 915.442 1067.85 918.532ZM1051.58 1218.46C1047.08 1221.08 1043.02 1214.1 1047.51 1211.49C1053.82 1207.83 1060.73 1205.39 1067.27 1202.19C1071.92 1199.91 1076 1206.88 1071.34 1209.16C1064.8 1212.36 1057.89 1214.8 1051.58 1218.46ZM1044.26 1048.21C1048.62 1052.35 1054.43 1054.3 1059.92 1056.47C1064.7 1058.36 1062.6 1066.17 1057.77 1064.26C1050.94 1061.55 1043.98 1059.07 1038.56 1053.92C1034.78 1050.33 1040.5 1044.63 1044.26 1048.21ZM1092.46 816.99C1097.24 818.869 1095.15 826.674 1090.31 824.776C1084.95 822.671 1079.4 821.068 1074.04 818.963C1069.25 817.084 1071.35 809.281 1076.19 811.178C1081.55 813.283 1087.09 814.885 1092.46 816.99ZM1177.47 725.151C1182.56 724.294 1184.73 732.074 1179.62 732.937C1173.28 734.008 1167.03 735.26 1161.02 737.587C1156.17 739.466 1154.08 731.657 1158.88 729.802C1164.89 727.475 1171.13 726.222 1177.47 725.151ZM1205.56 948.758C1200.9 946.463 1204.99 939.504 1209.63 941.788C1214.53 944.195 1219.6 946.055 1224.94 947.193C1230.03 948.277 1227.86 956.058 1222.79 954.978C1216.78 953.697 1211.06 951.465 1205.56 948.758ZM1232.09 822.803C1237.12 821.427 1239.24 829.216 1234.24 830.589C1225.44 833 1216.37 834.255 1207.51 836.401C1202.45 837.624 1200.32 829.838 1205.36 828.617C1214.23 826.469 1223.29 825.217 1232.09 822.803ZM1344.64 783.277C1349.75 784.223 1347.57 792.002 1342.49 791.063C1337.09 790.063 1331.61 790.047 1326.13 790.044C1320.93 790.042 1320.94 781.969 1326.13 781.971C1332.36 781.974 1338.5 782.142 1344.64 783.277ZM1711.7 825.454C1698.52 824.193 1685.31 823.184 1672.09 822.427C1671.47 822.395 1670.87 822.356 1670.25 822.325C1670.18 822.184 1670.09 822.052 1670 821.911C1665.68 815.574 1662.5 809.237 1659.75 802.071C1657.12 795.25 1654.56 788.217 1650.51 782.061C1645.88 775.048 1639.64 769.56 1632.79 764.804C1628.64 767.596 1624.79 770.866 1621.27 774.331C1617.56 777.977 1611.85 772.27 1615.56 768.623C1618.69 765.543 1622.03 762.698 1625.57 760.128C1621.49 757.647 1617.32 755.316 1613.26 752.997C1598.04 744.31 1582.45 736.276 1566.55 728.931C1559.15 725.509 1551.67 722.471 1544.13 719.393C1540.07 717.739 1536.07 715.609 1532.01 713.693C1532.31 710.826 1531.45 707.617 1529.25 705.73C1527.63 704.347 1526.37 703.832 1524.43 702.855C1523.99 702.702 1523.73 702.611 1523.61 702.561C1523.7 702.581 1523.96 702.662 1524.4 702.803C1525.43 703.278 1525.51 703.136 1524.64 702.389C1524.59 700.756 1521.37 697.304 1520.64 695.619C1518.07 689.836 1517.28 683.72 1513.49 678.453C1508.28 671.197 1499.52 668.453 1491.36 670.915C1490.51 662.186 1490.29 653.074 1487 645.283C1486.91 645.072 1486.62 644.98 1486.49 645.212C1483.06 651.056 1482.76 657.564 1482.5 664.305C1482.25 670.632 1482.49 677.101 1483.32 683.387C1482.79 683.791 1482.26 684.176 1481.71 684.548C1479.1 686.263 1476.3 687.585 1473.35 688.565C1467.74 690.421 1461.86 691.228 1455.98 691.511C1440.8 692.237 1425.15 690.704 1410.22 688.1C1395.12 685.466 1371.97 681.51 1358.53 673.952C1349.66 668.968 1341.48 662.882 1333.19 656.989C1336.2 647.301 1336.96 636.887 1333.94 628.703C1333.57 627.724 1332.04 627.542 1331.75 628.703C1329.85 636.513 1329.3 644.364 1326.77 652.084C1326.73 652.195 1326.69 652.317 1326.65 652.427C1325.87 651.893 1325.08 651.368 1324.29 650.843C1322.48 649.642 1320 650.541 1318.91 652.256C1301.49 679.714 1273.9 681.288 1244.93 686.194C1213.22 691.561 1181.35 697.354 1150.87 707.859C1121.71 717.911 1093.85 732.543 1071.78 754.401C1066.78 759.35 1062.11 764.623 1057.7 770.127C1061.97 770.665 1066.2 771.503 1070.38 772.816C1075.32 774.37 1073.2 782.161 1068.23 780.6C1062.86 778.913 1057.43 778.078 1051.95 777.663C1036.95 798.186 1025.26 821.458 1015.14 844.364C995.748 888.283 983.123 935.054 977.313 982.672C980.503 980.76 983.75 978.938 987.078 977.244C991.703 974.891 995.781 981.858 991.152 984.215C986.011 986.83 981.017 989.714 976.179 992.84C974.066 1013.68 973.247 1034.66 973.743 1055.61C974.923 1105.54 981.662 1156.93 996.905 1204.57C1004.38 1227.96 1014.29 1251.15 1029.05 1270.91C1035.72 1279.86 1043.31 1287.93 1052.25 1294.66C1056.58 1297.93 1061.16 1300.85 1065.99 1303.31C1072.21 1306.5 1080.32 1307.55 1085.69 1312.06C1087.46 1313.54 1088.82 1315.5 1089.85 1317.71C1089.25 1321.91 1089.18 1326.11 1090.33 1330.31C1090.69 1331.62 1091.68 1332.69 1092.9 1333.21C1092.92 1333.57 1092.92 1333.92 1092.92 1334.27C1092.92 1334.43 1093.16 1334.47 1093.2 1334.31C1093.25 1334 1093.3 1333.68 1093.35 1333.36C1093.74 1333.49 1094.15 1333.55 1094.58 1333.55C1109.9 1333.61 1125.24 1333.24 1140.59 1332.72C1139.4 1329.08 1138.12 1325.48 1136.88 1321.84C1135.21 1316.9 1143 1314.8 1144.66 1319.69C1146.11 1323.94 1147.62 1328.16 1148.96 1332.42C1165.4 1331.81 1181.84 1331.08 1198.24 1330.53C1233.14 1329.37 1268.02 1328.99 1302.92 1328.25C1357.13 1327.1 1411.73 1324.75 1466.01 1327.05C1467.89 1323.07 1469.99 1319.17 1471.99 1315.24C1474.34 1310.6 1481.3 1314.69 1478.95 1319.32C1477.57 1322.05 1476.13 1324.75 1474.77 1327.47C1485.77 1328.04 1496.75 1328.8 1507.71 1329.83C1526.41 1331.58 1544.94 1334.7 1563.62 1336.64C1582.61 1338.62 1601.2 1338.26 1620.04 1335.13C1623.43 1334.56 1625.43 1332.51 1626.26 1329.97C1626.29 1329.96 1626.31 1329.94 1626.33 1329.91C1627.29 1328.78 1628.2 1327.84 1629.14 1327.02C1630.26 1326.3 1631.47 1325.68 1632.89 1325.14C1635.55 1324.13 1638.31 1323.51 1641.12 1323.1C1644.2 1322.63 1647.33 1322.59 1650.42 1322.21C1653.02 1321.88 1655.56 1321.38 1658.1 1320.78C1662.67 1319.69 1667.01 1318.26 1671.33 1316.38C1675.09 1314.73 1678.49 1312.37 1681.7 1309.8C1688.34 1304.94 1694.09 1298.75 1699.11 1292.31C1702.04 1288.54 1704.79 1284.64 1707.29 1280.57C1711.65 1273.53 1715.36 1266.21 1719.12 1258.84C1720.48 1256.65 1721.72 1254.41 1722.86 1252.13C1715.52 1249.96 1708.12 1248.2 1700.34 1248.08C1695.15 1247.99 1695.15 1239.92 1700.34 1240C1709.26 1240.15 1717.7 1242.23 1726.08 1244.71C1726.48 1243.63 1726.88 1242.53 1727.24 1241.43C1728.24 1239.12 1729.06 1236.75 1729.75 1234.34C1730.15 1233.25 1730.56 1232.16 1730.96 1231.07C1731.87 1227.3 1732.78 1223.52 1733.69 1219.73C1735.52 1213.68 1736.96 1207.53 1738.02 1201.3C1738.91 1197.21 1739.6 1193.08 1740.06 1188.9C1741.47 1178.78 1742.62 1168.68 1742.7 1158.45C1742.58 1152.14 1742.18 1145.84 1741.49 1139.58C1741.2 1135.32 1740.71 1131.08 1740.04 1126.87C1739.17 1120.61 1738.31 1114.42 1736.87 1108.24C1735.79 1104.07 1734.71 1099.89 1733.63 1095.71C1730.94 1087 1727.76 1078.46 1724.1 1070.12C1723.9 1069.59 1722.88 1068.44 1722.26 1068.43C1721.8 1068.42 1721.15 1068.85 1721.37 1069.41C1721.39 1069.46 1721.41 1069.52 1721.43 1069.57C1721.22 1069.1 1721.01 1068.61 1720.8 1068.14C1720.62 1067.7 1719.91 1066.81 1719.37 1066.82C1719.34 1066.82 1719.31 1066.82 1719.27 1066.83C1719.41 1066.73 1719.54 1066.6 1719.67 1066.44C1723.29 1062.16 1725.64 1056.51 1728.24 1051.55C1730.39 1047.45 1732.41 1043.13 1733 1038.5C1733.51 1034.44 1732.82 1030.43 1730.26 1027.14C1727.36 1023.39 1721.89 1021.64 1724.93 1016.23C1728.38 1010.07 1733.45 1004.74 1728.4 997.742C1725.83 994.18 1721.75 992.223 1718.72 989.124C1715.24 985.542 1713.59 980.748 1713.68 975.854C1713.89 975.975 1714.17 975.916 1714.27 975.612C1717.2 966.772 1715.08 957.065 1712.09 948.456C1710.45 943.785 1706.99 942.502 1702.97 942.271C1720.4 908.213 1736.71 873.609 1751.25 838.209C1751.73 837.048 1752.21 835.888 1752.68 834.727C1753.39 832.991 1751.89 830.681 1750.17 830.297C1737.6 827.542 1724.5 826.664 1711.7 825.454Z" fill="black"/>
<path fill-rule="evenodd" clip-rule="evenodd" d="M1566.28 403.627C1563.88 372.602 1567.59 340.083 1555.63 310.595C1534.78 261.667 1476.32 245.353 1430.99 226.726C1412.83 221.358 1351.73 220.608 1330.47 213.505C1282.35 197.427 1270.85 178.271 1232.62 208.883C1226.16 214.112 1222.12 219.796 1219.18 227.561L1219.3 227.594C1218.46 230.832 1219.36 234.062 1221.26 236.529C1204.68 253.481 1197.74 278.895 1206.25 301.46C1234.01 360.18 1232.7 391.931 1223.76 455.058C1212.08 513.991 1238.77 535.519 1282.97 567.585C1281.17 571.076 1280.79 575.715 1283.14 578.795C1334.25 650.644 1430.63 684.949 1513.2 648.481C1546.72 633.558 1561.68 597.851 1570.22 565.633C1580.17 529.557 1583.23 491.543 1575.13 454.795C1571.86 437.799 1567.61 420.926 1566.28 403.627Z" fill="white"/>
<path fill-rule="evenodd" clip-rule="evenodd" d="M1271.45 59.8964C1277.65 58.9645 1282.33 62.815 1284.56 68.2423L1284.68 68.5346C1285.4 70.3813 1286.19 72.1775 1287.05 73.9435C1302.58 66.3246 1324.73 68.2823 1334.56 83.7119C1341.57 94.7317 1337.29 107.81 1334.65 119.496L1332.91 127.195C1336.27 129.331 1338.79 133.154 1338.68 137.113L1338.66 137.418L1337.96 148.155C1340.2 145.885 1342.24 143.412 1344.07 140.778C1345.33 138.467 1346.69 136.197 1348.15 133.997C1356.76 121.05 1376.08 132.302 1368.98 146.167C1367.61 148.841 1366.08 151.374 1364.44 153.816C1362.58 157.419 1361.06 161.122 1359.89 164.927C1363.25 166.39 1365.83 169.64 1366.1 174.544C1366.74 185.998 1360.72 195.554 1351.16 201.558C1348.35 203.324 1345.44 203.668 1342.81 203.012C1342.34 203.637 1341.88 204.263 1341.44 204.899C1345.25 207.997 1348.69 211.529 1351.64 215.444C1360.54 214.112 1369.49 213.486 1378.44 213.466C1389.37 208.108 1402.47 208.219 1414.22 210.227C1421.79 211.519 1429.05 214.031 1436.5 215.838C1444.34 217.735 1452.31 217.805 1460.25 219.097C1470.26 220.722 1479.04 225.344 1484.55 232.72C1490.62 232.902 1496.99 235.385 1502.28 238.755C1514.59 246.606 1526.82 254.568 1539.1 262.47C1543.81 265.503 1545.57 270.346 1544.71 275.747L1544.65 276.093L1544.24 278.333L1545.21 279.712C1548.96 285.02 1553.05 290.579 1555.48 296.437C1559.98 302.926 1564.05 309.727 1567.65 316.741C1572.5 326.166 1576.51 336.157 1579.22 346.409C1579.9 349.003 1580.57 351.616 1581.02 354.26C1581.65 357.994 1580.67 360.89 1580.14 364.473C1579.47 369.014 1579.23 373.616 1578.52 378.167C1578.05 381.184 1575.49 382.667 1572.8 382.748C1573.81 390.428 1574.54 398.158 1575.24 405.827C1576.21 416.786 1576.88 427.776 1577.46 438.765C1580.42 443.074 1586.48 446.485 1590.86 447.666C1596.93 449.29 1603.28 447.524 1609.01 445.456C1612.61 444.154 1615.57 448.685 1613.81 451.712C1608.29 461.218 1596.49 461.178 1587.55 456.97C1583.77 455.194 1580.45 452.621 1577.99 449.27C1578.14 452.459 1578.3 455.648 1578.46 458.847L1578.61 461.744C1580.43 495.583 1584.36 530.585 1578 564.089C1566.99 622.124 1518.98 666.314 1460.33 669.745C1429.56 671.546 1403.93 662.453 1391.18 657.38C1378.44 652.308 1383.39 641.965 1392.24 644.921C1407.48 650.015 1435.48 657.602 1460.54 654.326C1519.59 646.603 1569.67 617.077 1564.52 489.908C1563.79 471.874 1561.55 453.831 1561.06 435.798C1560.6 418.169 1560.77 400.529 1559.99 382.91L1559.73 376.898C1559.43 369.874 1559.11 362.817 1558.58 355.784C1557.95 353.059 1557.42 350.294 1556.64 347.62C1554.54 340.344 1551.78 333.27 1548.36 326.519C1547.6 327.094 1546.76 327.508 1545.84 327.67C1538.87 328.921 1532.33 328.568 1525.8 325.662C1522.76 324.319 1520.07 322.533 1517.57 320.323C1516.38 319.284 1515.59 318.275 1514.96 317.225C1511.8 317.276 1508.64 316.327 1506.67 314.057C1504.41 311.469 1504.04 308.796 1504.92 306.321L1505.01 306.074L1504.79 305.994C1502.13 312.886 1496.82 318.951 1491 323.048C1481.8 329.547 1470.29 331.424 1459.25 331.595C1447.07 331.777 1434.22 329.9 1422.19 327.983C1419.01 327.478 1415.86 326.903 1412.76 326.126C1412.64 326.247 1412.52 326.388 1412.38 326.509C1402.06 336.389 1387.55 338.932 1374.45 333.291C1366.89 330.031 1360.54 324.784 1354.93 318.769C1354.85 321.918 1354.69 325.066 1354.42 328.184L1354.31 329.423C1353.75 335.23 1352.67 341.391 1348.29 345.582C1341.19 352.373 1330.9 349.649 1322.72 345.229C1322.73 345.441 1322.73 345.663 1322.73 345.885C1324.94 353.392 1327.16 360.911 1329.38 368.429L1329.86 370.03C1331.47 375.368 1333.24 380.713 1333.73 386.3C1334.66 396.977 1327.55 407.522 1315.69 403.94C1309.47 402.068 1304.48 396.834 1299.7 392.641L1296.69 390.034C1304.48 415.535 1309.89 441.944 1310.39 468.555C1310.43 469.998 1309.18 471.088 1307.81 471.138C1304.6 471.269 1301.15 470.634 1297.93 469.352C1297.74 469.342 1297.56 469.332 1297.37 469.301C1291.86 468.504 1286.75 466.516 1282.24 463.58C1283.28 466.88 1283.74 470.422 1283.47 474.125C1283.4 475.023 1282 475.336 1281.8 474.347C1279.19 461.541 1264.21 451.864 1251.3 454.316C1237.44 456.95 1227.23 468.878 1224.73 482.45C1222.04 497.032 1227.18 513.895 1236.69 525.147C1241.07 530.334 1246.83 534.663 1253.67 535.753C1256.8 536.247 1260.05 536.076 1263.08 535.188C1264.37 534.804 1265.58 534.269 1266.81 533.765C1268.61 533.038 1270.71 532.927 1272.4 532.16C1276.25 530.435 1280.11 533.977 1278.16 537.922C1276.47 541.364 1274.95 543.685 1272.13 545.461C1274.41 548.246 1276.48 552.121 1277.25 553.16C1281.16 558.448 1285.13 563.443 1289.59 568.277C1294.13 573.182 1299.09 577.662 1304.32 581.81L1306.52 583.549C1311.57 587.55 1315.96 591.258 1319.51 596.997C1322.32 601.528 1318.69 607.674 1313.43 607.603C1296.99 607.371 1285.03 592.92 1276.52 580.296C1275.31 578.49 1274.17 576.582 1273.11 574.625C1272.73 575.24 1272.3 575.815 1271.83 576.34L1272.77 578.863C1275.55 586.29 1263.56 591.144 1260.08 584.211C1257.54 579.186 1254.61 574.403 1251.34 569.882C1249.41 569.609 1247.53 568.439 1246.48 566.925C1243.82 563.08 1240.85 559.195 1238.34 555.098C1236.94 553.776 1235.51 552.504 1234.05 551.263C1233.63 551.637 1233.19 552.01 1232.78 552.404C1230.94 556.591 1228.67 560.416 1225.86 564.019L1225.25 564.787C1219.86 571.585 1212.84 578.542 1204.15 580.205C1201.49 580.71 1198.94 577.41 1201.29 575.301C1207.38 569.831 1214.57 566.108 1220.18 560.002C1222.94 556.994 1225.48 553.682 1227.66 550.21L1228.16 549.406C1228.52 548.811 1228.89 548.216 1229.28 547.61C1226.75 545.885 1224.21 544.149 1221.68 542.413C1214.71 548.37 1205.63 551.095 1197.92 556.03L1197.16 556.531C1190.19 561.193 1182.84 550.88 1188.43 545.218C1194.59 539.001 1199.73 531.587 1205.19 524.677C1202.63 519.948 1201.41 514.356 1200.96 508.705C1200.78 507.106 1200.64 505.505 1200.5 503.905C1196.58 503.965 1192.65 502.623 1189.32 500.312L1188.06 499.414C1184.01 500.706 1179.77 501.331 1175.7 501.22C1166.14 500.938 1162.22 490.009 1168.2 483.096C1174.31 476.032 1184.99 474.488 1193.45 477.919C1193.73 477.778 1194.01 477.627 1194.28 477.475C1193.88 475.619 1193.97 473.934 1194.43 472.455L1194.29 471.553C1192.43 468.696 1191.21 465.434 1190.74 461.988C1190.38 459.259 1190.45 456.553 1191.08 453.858C1191.29 452.961 1191.73 452.031 1192.06 451.096C1191.38 449.358 1190.97 447.562 1190.85 445.755C1190.65 445.526 1190.46 445.291 1190.28 445.037C1186.08 439.138 1186.93 432.031 1190.93 427.258C1190.94 426.954 1190.97 426.65 1191.01 426.349C1190.78 425.822 1190.57 425.29 1190.37 424.752C1186.46 420.812 1183.6 416.07 1184.13 410.194C1184.45 406.736 1185.87 403.624 1188.02 401.298C1187.63 400.17 1187.6 398.863 1188.06 397.772C1184.63 388.644 1185.06 377.649 1187.53 367.44C1186.99 365.886 1186.71 364.2 1186.77 362.414C1187.05 354.836 1193.61 347.873 1201.37 347.963C1202.31 347.971 1203.18 348.094 1204.03 348.272L1204.04 348.092C1204.33 345.817 1204.96 343.715 1205.87 341.829C1205.42 341.666 1205.01 341.433 1204.64 341.123C1199.67 343.78 1194.4 345.81 1188.88 347.193C1184.82 348.211 1180.66 343.594 1183.18 339.781C1184.35 338.012 1185.65 336.424 1187.04 334.973C1185.06 334.984 1183.05 335.118 1181.02 335.379C1177.36 335.854 1173.29 333.361 1170.92 329.991C1167.97 332.857 1165.02 335.712 1162.06 338.568C1154.58 345.824 1143.27 340.486 1142.09 330.919C1139.86 330.324 1137.78 329.315 1135.95 327.872C1124.15 332.998 1111.45 335.813 1098.47 336.348C1089.14 336.732 1083.7 325.873 1088.05 318.204C1090.98 313.057 1094.61 308.436 1098.8 304.419C1092.3 306.407 1085.59 307.84 1078.74 308.759C1075.04 309.253 1069.81 306.185 1068.32 302.785C1062.65 289.706 1063.14 276.073 1069.66 263.348C1069.92 262.843 1070.2 262.359 1070.47 261.874C1071.15 260.189 1071.88 258.524 1072.68 256.889C1064.65 248.513 1063.95 236.061 1068.28 225.636C1066.55 222.821 1065.88 219.43 1067.06 216.362C1070.42 207.532 1075.26 199.379 1081.38 192.375C1080.79 191.245 1080.28 190.044 1079.84 188.753C1076.4 178.308 1080.39 165.704 1088.43 158.428C1093.48 153.847 1099.29 151.102 1105.5 149.346C1108.11 144.724 1111.47 140.556 1115.38 137.045C1115.53 136.712 1115.69 136.379 1115.86 136.046C1121.95 124.562 1133.05 118.406 1144.94 116.983C1145.41 112.492 1148.43 108.204 1152.83 106.811C1154.04 102.926 1155.85 99.2122 1158.33 95.8417C1162.23 90.5337 1168.72 88.031 1174.83 91.5125C1178.18 93.4198 1181.39 95.6096 1184.4 98.0315C1185.75 97.3981 1187.28 96.9882 1189 96.8575L1189.44 96.8307L1199.39 96.3261C1203.55 94.4794 1207.71 92.5418 1211.88 90.6548C1214.38 88.586 1217.17 86.8604 1220.22 85.5788C1223.67 84.1358 1227.2 83.3184 1230.74 83.0459C1233.62 82.1074 1236.51 81.2799 1239.46 80.6341C1246.38 79.1204 1253.62 78.2727 1260.8 78.3433C1260.95 76.4837 1261.02 74.6017 1261.01 72.6976L1260.99 71.7436C1260.83 65.6384 1265.71 60.7643 1271.45 59.8964ZM1264.47 548.367C1263.49 548.579 1262.49 548.75 1261.49 548.872C1261.79 549.618 1262.09 550.365 1262.39 551.112C1263.19 551.566 1264.01 552 1264.83 552.403C1264.59 551.031 1264.44 549.649 1264.47 548.367ZM1212.65 532.961L1211.97 534.196C1211.87 534.398 1211.76 534.598 1211.65 534.794C1213.08 534.683 1214.51 534.713 1215.92 534.875L1215.92 534.724C1215.74 534.663 1215.55 534.606 1215.38 534.522C1214.41 534.053 1213.5 533.529 1212.65 532.961ZM1240.66 476.598C1249.58 477.118 1257.14 478.486 1265.26 482.392L1265.96 482.733C1273.13 486.295 1284.99 492.875 1283.99 502.31C1283.71 504.995 1281.77 507.82 1278.7 507.608C1270.3 507.033 1265.49 498.556 1259.8 493.268C1254.06 487.94 1247.01 482.461 1240.06 478.797C1239.08 478.282 1239.47 476.649 1240.53 476.597L1240.66 476.598ZM1200.18 352.282C1198.04 352.353 1198.76 354.432 1199.86 352.696C1199.95 352.555 1200.06 352.414 1200.18 352.282ZM1315.63 213.505C1295.37 214.037 1274.99 226.001 1259.81 238.093C1246.61 248.613 1235.22 261.127 1225.12 274.614C1222.53 281.33 1220.3 288.187 1218.41 295.095C1217.17 299.656 1216.39 304.268 1215.36 308.87L1215.03 310.28C1214.22 311.806 1213.61 313.448 1213.17 315.144C1215.01 316.989 1217.39 318.31 1220.02 318.937C1220.87 319.139 1221.57 319.575 1222.13 320.155C1224.24 316.625 1226.09 312.899 1227.16 308.949L1227.2 308.767C1231.27 302.107 1235.68 295.655 1240.41 289.424C1253.47 272.218 1267.84 256.536 1285.12 243.488C1298.23 233.598 1312.88 225.848 1328.45 220.813C1324.64 217.736 1320.31 215.302 1315.63 213.505Z" fill="black"/>
<path fill-rule="evenodd" clip-rule="evenodd" d="M1498.22 587.695C1490.79 589.848 1482.81 590.04 1475.24 587.817C1468.37 585.8 1461.31 581.361 1456.26 575.487C1451.76 570.269 1448.85 563.929 1448.97 557.16C1448.98 556.387 1449.26 555.742 1449.68 555.241C1450.14 554.702 1450.78 554.332 1451.46 554.171C1452.17 554.006 1452.91 554.064 1453.55 554.352C1454.12 554.613 1454.61 555.056 1454.92 555.703C1455.7 556.724 1456.47 557.731 1457.25 558.709C1463.5 566.427 1469.55 572.195 1478.94 574.264C1484.04 575.386 1489.13 574.888 1493.8 573.176C1498.81 571.342 1503.33 568.118 1506.87 563.993C1508.47 562.128 1510.36 561.367 1512.21 561.354C1514.3 561.34 1516.37 562.313 1517.93 563.869C1519.46 565.399 1520.49 567.477 1520.58 569.651C1520.67 571.559 1520.04 573.552 1518.39 575.331C1512.93 581.188 1505.87 585.479 1498.22 587.695ZM1497.99 491.028C1505.61 495.66 1517.22 506.461 1509.02 517.944C1499.38 528.069 1485.49 516.46 1478.64 511.21C1472.3 507.141 1465.17 517.606 1471.05 522.357C1520.51 558.984 1540.58 492.239 1501.85 485.582C1497.58 484.848 1496 489.595 1497.99 491.028ZM1426.73 470.647C1424.28 469.08 1421.4 468.543 1418.21 469.995C1415.72 471.13 1411.34 474.913 1408.3 479.885C1406.21 483.287 1404.74 487.278 1405.04 491.436C1405.12 492.401 1404.76 493.113 1404.2 493.639C1403.75 494.055 1403.11 494.36 1402.36 494.456C1401.72 494.537 1401 494.464 1400.42 494.282C1399.31 493.936 1398.72 493.217 1398.5 492.63C1396.37 486.967 1397.29 480.647 1399.68 474.945C1402.9 467.25 1408.76 460.805 1412.59 458.727C1419.16 455.17 1426.9 455.006 1433.48 458.63C1439.08 461.714 1442.57 466.694 1446.05 471.77C1446.79 472.849 1447.53 473.92 1448.29 474.972C1449.81 477.081 1449.96 479.172 1449.37 480.965C1448.72 482.952 1447.05 484.628 1444.97 485.506C1443.05 486.317 1440.82 486.431 1438.84 485.598C1437.18 484.894 1435.65 483.522 1434.68 481.194C1433.05 477.273 1430.33 472.947 1426.73 470.647V470.647ZM1551.08 479.37C1549.41 480.244 1548.09 480.507 1546.23 479.95C1545.2 479.641 1544.19 479.048 1543.39 478.252C1542.6 477.463 1542.03 476.482 1541.81 475.393C1541.27 472.707 1539.8 470.192 1537.71 468.552C1535.92 467.151 1533.66 466.408 1531.15 466.827C1528.45 467.279 1525.87 469.014 1524.1 471.059C1523.5 471.743 1523.04 472.52 1522.57 473.293C1521.7 474.736 1520.85 476.078 1519.64 477.139C1519.18 477.542 1518.49 477.821 1517.83 477.821C1517.56 477.821 1517.28 477.777 1517.02 477.696C1514.33 474.993 1513.81 472.943 1513.9 470.91C1513.99 468.778 1514.83 466.619 1516.19 464.605C1519.37 459.881 1525.42 456.007 1529.5 455.129C1535.09 453.928 1540.64 455.37 1545.09 458.493C1549.67 461.706 1553.06 466.695 1554.12 472.317C1554.38 473.671 1554.27 475.132 1553.75 476.399C1553.25 477.638 1552.37 478.698 1551.08 479.37ZM1439.06 420.273C1435.7 423.542 1431.73 424.049 1427.72 424.499C1425.49 424.752 1423.7 424.955 1421.95 425.351C1417.13 426.439 1412.37 428.078 1408.02 430.438C1403.48 432.905 1398.53 435.88 1394.97 439.692C1394.12 440.599 1393.33 441.55 1392.53 442.504C1391.8 443.374 1391.1 444.211 1390.36 445.019C1389.51 445.946 1388.7 446.918 1387.9 447.887C1387.4 448.705 1387.3 448.906 1387.2 449.116C1387.05 449.431 1386.88 449.783 1386.68 450.161C1386.4 450.678 1386.08 451.244 1385.75 451.758C1385.19 452.697 1384.89 452.955 1384.63 453.071C1384.2 453.262 1383.79 453.357 1383.4 453.306C1383.03 453.258 1382.68 453.079 1382.33 452.788C1380.61 451.332 1380.1 448.944 1380.15 446.408C1380.23 442.561 1381.65 438.301 1382.96 435.682C1386 429.597 1390.22 423.272 1395.29 418.73C1401.07 413.547 1407.41 409.622 1414.68 406.918C1419.2 405.237 1424.43 403.694 1429.35 403.889C1432.89 404.029 1436.28 405.083 1439.07 407.714C1440.79 409.329 1441.61 411.627 1441.61 413.923C1441.61 416.265 1440.75 418.62 1439.06 420.273ZM1557.9 450.209C1557.69 450.559 1557.4 450.8 1557.07 450.945C1556.72 451.096 1556.34 451.14 1555.97 451.078C1555.6 451.016 1555.25 450.849 1554.98 450.595C1554.71 450.351 1554.51 450.027 1554.42 449.631C1552.19 439.847 1547.87 432.567 1538.64 427.873C1534.1 425.564 1528.88 424.097 1523.93 422.927C1522.5 422.587 1520.98 422.366 1519.45 422.143C1514.66 421.444 1509.84 420.643 1506.72 416.77C1504.83 414.437 1504.04 411.453 1504.49 408.725C1504.91 406.156 1506.41 403.8 1509.14 402.389C1515.93 398.876 1524.37 402.323 1531.23 405.259C1531.74 405.477 1532.24 405.691 1532.73 405.897C1539.43 408.729 1545.55 412.467 1550.58 417.813C1554.57 422.055 1558.27 428.325 1559.76 434.775C1560.99 440.141 1560.7 445.619 1557.9 450.209Z" fill="black"/>
</g>
<defs>
<clipPath id="clip0_0_214">
<rect width="1980" height="1024" fill="white"/>
</clipPath>
</defs>
</svg>
